<?xml version="1.0" encoding="utf-8"?>
<!-- Generator: Adobe Illustrator 21.1.0, SVG Export Plug-In . SVG Version: 6.00 Build 0)  -->
<svg version="1.1" id="Layer_1" xmlns="http://www.w3.org/2000/svg" xmlns:xlink="http://www.w3.org/1999/xlink" x="0px" y="0px"
	 viewBox="0 0 288 288" style="enable-background:new 0 0 288 288;" xml:space="preserve">
<style type="text/css">
	.st0{fill:url(#SVGID_1_);stroke:#FFFFFF;stroke-miterlimit:10;}
	.st1{fill:url(#SVGID_2_);stroke:#000000;stroke-width:0.25;stroke-miterlimit:10;}
	.st2{fill:#FFFFFF;stroke:#FFFFFF;stroke-width:0.25;stroke-miterlimit:10;}
</style>
<linearGradient id="SVGID_1_" gradientUnits="userSpaceOnUse" x1="4.5066" y1="144.2804" x2="272.5067" y2="143.2804">
	<stop  offset="0" style="stop-color:#EE2A7B"/>
	<stop  offset="1" style="stop-color:#414042"/>
</linearGradient>
<rect x="11.5" y="75.9" class="st0" width="136.2" height="136.2"/>
<g>
	<linearGradient id="SVGID_2_" gradientUnits="userSpaceOnUse" x1="4.5047" y1="143.7653" x2="272.5047" y2="142.7653">
		<stop  offset="0" style="stop-color:#EE2A7B"/>
		<stop  offset="1" style="stop-color:#414042"/>
	</linearGradient>
	<path class="st1" d="M153.9,76.4c11.4-1.8,26.2-2.8,41.8-2.8c26,0,42.8,4.7,56,14.6c14.2,10.5,23.1,27.4,23.1,51.5
		c0,26.2-9.5,44.2-22.7,55.4c-14.4,12-36.3,17.6-63.1,17.6c-16,0-27.4-1-35.1-2V76.4z M184.9,187.9c2.6,0.6,6.9,0.6,10.7,0.6
		c28,0.2,46.2-15.2,46.2-47.9c0.2-28.4-16.4-43.4-43-43.4c-6.9,0-11.4,0.6-14,1.2V187.9z"/>
</g>
<g>
	<path class="st2" d="M93.7,98.6c0,7.6-5.8,13.7-14.8,13.7c-8.6,0-14.4-6.1-14.2-13.7c-0.2-7.9,5.6-13.9,14.4-13.9
		S93.5,90.6,93.7,98.6z M65.4,211.2v-88.1h27.4v88.1H65.4z"/>
</g>
</svg>
